<svg width="40" height="40" viewBox="0 0 40 40" fill="none" xmlns="http://www.w3.org/2000/svg">
<g clip-path="url(#clip0_1989_3854)">
<path d="M19.9998 18.81L29.5573 12.8359H10.4424L19.9998 18.81Z" fill="#963821"/>
<path d="M10.4424 15.2246V27.1727H29.5573V15.2246L19.9998 21.1986L10.4424 15.2246Z" fill="#963821"/>
<path d="M31.7802 0.00403105H8.21901C3.6813 0.00403105 -0.000394845 3.68403 -0.000394845 8.22221V19.7048C-0.00247255 19.8939 -0.00247255 20.0809 -0.000394845 20.27V31.7879C-0.000394845 36.324 3.67922 40.004 8.21693 40.004H31.7781C36.3158 40.004 39.9955 36.324 39.9955 31.7879V20.2929C39.9975 20.0955 39.9975 19.896 39.9955 19.6986V8.22014C39.9955 3.68195 36.3158 0.00195312 31.7781 0.00195312L31.7802 0.00403105ZM31.9464 27.1729C31.9464 27.8295 31.7116 28.3926 31.2442 28.8601C30.7767 29.3277 30.2136 29.5625 29.5571 29.5625H10.4422C9.7856 29.5625 9.22254 29.3277 8.75506 28.8601C8.28758 28.3926 8.05279 27.8295 8.05279 27.1729V12.8352C8.05279 12.1786 8.28758 11.6155 8.75506 11.1479C9.22254 10.6804 9.7856 10.4456 10.4422 10.4456H29.5571C30.2136 10.4456 30.7767 10.6804 31.2442 11.1479C31.7116 11.6155 31.9464 12.1786 31.9464 12.8352V27.1729Z" fill="#963821"/>
</g>
<defs>
<clipPath id="clip0_1989_3854">
<rect width="40" height="40" fill="white" transform="translate(0 0.00390625)"/>
</clipPath>
</defs>
</svg>
