<svg width="24" height="24" viewBox="0 0 24 24" fill="none" xmlns="http://www.w3.org/2000/svg">
<g clip-path="url(#clip0_156_708)">
<path d="M12 11.2831L17.7344 7.69873H6.2655L12 11.2831Z" fill="white"/>
<path d="M6.2655 9.13232V16.3012H17.7344V9.13232L12 12.7167L6.2655 9.13232Z" fill="white"/>
<path d="M19.0681 -0.00021809H4.93136C2.20873 -0.00021809 -0.000285735 2.20778 -0.000285735 4.93069V11.8203C-0.00153236 11.9337 -0.00153236 12.0459 -0.000285735 12.1594V19.0701C-0.000285735 21.7918 2.20748 23.9998 4.93011 23.9998H19.0668C21.7894 23.9998 23.9972 21.7918 23.9972 19.0701V12.1731C23.9985 12.0546 23.9985 11.935 23.9972 11.8165V4.92944C23.9972 2.20654 21.7894 -0.00146484 19.0668 -0.00146484L19.0681 -0.00021809ZM19.1678 16.3011C19.1678 16.6951 19.0269 17.0329 18.7464 17.3134C18.466 17.594 18.1281 17.7348 17.7342 17.7348H6.26524C5.87131 17.7348 5.53348 17.594 5.25299 17.3134C4.9725 17.0329 4.83163 16.6951 4.83163 16.3011V7.69848C4.83163 7.30451 4.9725 6.96664 5.25299 6.68612C5.53348 6.4056 5.87131 6.26472 6.26524 6.26472H17.7342C18.1281 6.26472 18.466 6.4056 18.7464 6.68612C19.0269 6.96664 19.1678 7.30451 19.1678 7.69848V16.3011Z" fill="white"/>
</g>
<defs>
<clipPath id="clip0_156_708">
<rect width="24" height="24" fill="white"/>
</clipPath>
</defs>
</svg>
