<svg width="24" height="24" viewBox="0 0 24 24" fill="none" xmlns="http://www.w3.org/2000/svg">
<g clip-path="url(#clip0_156_694)">
<path d="M23.9975 14.0951C23.9963 13.3969 23.9963 12.6988 23.9963 12.0006C23.9963 11.015 23.9975 10.0306 23.9963 9.04496C23.995 8.00705 23.9913 6.97039 23.9801 5.93249C23.995 5.75079 23.9688 5.57034 23.9663 5.38864C23.9103 4.44532 23.7283 3.48831 23.246 2.66321C22.654 1.60539 21.657 0.774073 20.4979 0.408193C19.9333 0.196629 19.3326 0.124449 18.7369 0.0672025L18.7169 0.0721804C18.7095 0.0535131 18.697 0.0174229 18.6908 0L18.7057 0.0696915C18.4714 0.06098 18.2334 0.0224008 17.9991 0.0510241C17.584 0.0112004 17.1665 0.0248898 16.7515 0.0224008H6.57673C6.20034 0.0174229 5.82521 0.0497796 5.44882 0.058491C4.31594 0.107026 3.15688 0.378325 2.2234 1.04786C1.4993 1.54068 0.933479 2.24506 0.567066 3.03531C0.238043 3.74218 0.0972114 4.51626 0.0473594 5.28784C0.0411279 5.48696 0.0137093 5.68483 0.0274186 5.88395C-0.0062315 7.30018 0.0186945 8.7189 0.0087241 10.1351C0 11.4269 0 12.7187 0 14.0105C0 15.0123 0.0012463 16.0129 0 17.0147C0.0037389 17.8223 0.0037389 18.6338 0.12463 19.434C0.203147 20.1035 0.420003 20.7556 0.750273 21.343C0.763982 21.3667 0.778937 21.3891 0.798878 21.4077C1.45319 22.6037 2.6621 23.4487 3.97694 23.7723C4.71351 23.9166 5.46129 23.9764 6.21156 23.9938C7.53762 24.0025 8.87739 23.9888 10.2035 24L10.2159 23.9876L10.2271 23.9689L10.2359 23.9154C10.2408 23.7461 10.2396 22.5041 10.2384 21.0107C10.2384 20.1919 10.2384 19.2971 10.2384 18.462C10.2384 17.1416 10.2408 15.9556 10.2471 15.4603C10.105 15.4242 9.95794 15.4317 9.81212 15.4379C8.90357 15.4528 8.01495 15.4217 7.10765 15.4528C7.12759 15.3309 7.11139 15.2077 7.11139 15.0857C7.1089 14.5481 7.11014 14.0105 7.11014 13.4729C7.11014 12.9887 7.11014 12.5046 7.11014 12.0205C7.49899 12.0205 7.88783 12.0205 8.27668 12.0205C8.91603 12.0205 9.53544 12.018 10.176 12.0255C10.1885 11.1357 10.1985 10.2459 10.201 9.35608C10.201 8.81597 10.2608 8.26342 10.4054 7.73824C10.5499 7.21307 10.7792 6.71278 11.1145 6.27721C11.3039 6.03702 11.5146 5.81177 11.7551 5.62261C12.0492 5.39238 12.3783 5.20944 12.7222 5.06383C13.4737 4.77386 14.2863 4.68551 15.0865 4.72657C15.8504 4.74649 16.6842 4.78382 17.4382 4.90454C17.437 5.87648 17.3672 6.90941 17.361 7.88136C16.774 7.89878 16.1458 7.91371 15.5601 7.94607C15.0491 7.97718 14.5618 8.1315 14.2552 8.55712C13.9997 8.90433 13.9012 9.34363 13.9012 9.76925C13.9012 10.5209 13.8975 11.2713 13.905 12.0218C14.6428 12.0205 15.3993 12.018 16.1496 12.0193C16.5322 12.0193 17.0157 12.0205 17.3934 12.023C17.3747 12.1363 17.255 12.7137 17.1179 13.3733C16.9509 14.1822 16.759 15.1168 16.6979 15.474C15.762 15.4752 14.8384 15.474 13.9025 15.474V15.4852C13.9025 16.1871 13.9025 16.889 13.9025 17.5921C13.9025 18.4782 13.9025 19.3655 13.9025 20.2528C13.9025 21.4662 13.9012 22.6796 13.8987 23.8942C13.8987 23.9203 13.8975 23.9701 13.8962 23.9963L13.9025 23.99C14.573 24.0062 15.2435 23.9938 15.914 23.9975C17.1528 23.9888 18.4004 24.046 19.628 23.8444C21.2843 23.6067 22.7886 22.4817 23.4541 20.9448C23.8866 20.0288 23.9639 18.9996 23.9913 18.0028C24.0075 16.7011 23.9975 15.3993 23.9975 14.0976V14.0951Z" fill="white"/>
</g>
<defs>
<clipPath id="clip0_156_694">
<rect width="24" height="24" fill="white"/>
</clipPath>
</defs>
</svg>
