<svg width="40" height="40" viewBox="0 0 40 40" fill="none" xmlns="http://www.w3.org/2000/svg">
<g clip-path="url(#clip0_1989_3848)">
<path d="M39.9958 23.4957C39.9938 22.3321 39.9938 21.1685 39.9938 20.0049C39.9938 18.3622 39.9958 16.7216 39.9938 15.0788C39.9917 13.349 39.9855 11.6212 39.9668 9.89138C39.9917 9.58856 39.9481 9.2878 39.9439 8.98498C39.8504 7.41277 39.5472 5.81775 38.7433 4.44259C37.7567 2.67956 36.0949 1.29403 34.1632 0.684228C33.2222 0.331622 32.221 0.211321 31.2281 0.11591L31.1949 0.124207C31.1824 0.0930947 31.1617 0.0329444 31.1513 0.00390625L31.1762 0.120059C30.7857 0.10554 30.3889 0.041241 29.9984 0.0889464C29.3067 0.0225736 28.6109 0.0453893 27.9192 0.041241H10.9612C10.3339 0.0329444 9.70868 0.0868723 9.08137 0.101391C7.19323 0.182283 5.26146 0.634448 3.70567 1.75034C2.49883 2.5717 1.5558 3.74567 0.945111 5.06276C0.396739 6.24088 0.162019 7.531 0.0789323 8.81697C0.0685465 9.14884 0.0228488 9.47863 0.0456977 9.81049C-0.0103858 12.1709 0.0311575 14.5354 0.0145402 16.8958C0 19.0488 0 21.2017 0 23.3547C0 25.0244 0.00207717 26.692 0 28.3617C0.0062315 29.7078 0.00623149 31.0602 0.207717 32.3938C0.338578 33.5097 0.700005 34.5966 1.25045 35.5756C1.2733 35.615 1.29823 35.6523 1.33146 35.6834C2.42198 37.6767 4.43683 39.085 6.62824 39.6243C7.85584 39.8649 9.10214 39.9645 10.3526 39.9935C12.5627 40.008 14.7957 39.9852 17.0058 40.0039L17.0265 39.9832L17.0452 39.952L17.0598 39.8629C17.0681 39.5808 17.066 37.5108 17.0639 35.0218C17.0639 33.657 17.0639 32.1657 17.0639 30.7739C17.0639 28.5733 17.0681 26.5966 17.0785 25.7711C16.8417 25.7109 16.5966 25.7234 16.3535 25.7337C14.8393 25.7586 13.3583 25.7068 11.8461 25.7586C11.8793 25.5554 11.8523 25.35 11.8523 25.1468C11.8482 24.2507 11.8502 23.3547 11.8502 22.4587C11.8502 21.6518 11.8502 20.845 11.8502 20.0381C12.4983 20.0381 13.1464 20.0381 13.7945 20.0381C14.8601 20.0381 15.8924 20.034 16.9601 20.0464C16.9808 18.5634 16.9975 17.0804 17.0016 15.5974C17.0016 14.6972 17.1013 13.7763 17.3423 12.901C17.5832 12.0257 17.9654 11.1919 18.5242 10.4659C18.8399 10.0656 19.1909 9.69019 19.5918 9.37492C20.082 8.9912 20.6304 8.6863 21.2037 8.44362C22.4562 7.96035 23.8106 7.81308 25.1441 7.88153C26.4174 7.91472 27.807 7.97694 29.0637 8.17813C29.0616 9.79805 28.9453 11.5196 28.9349 13.1395C27.9566 13.1685 26.9097 13.1934 25.9334 13.2474C25.0818 13.2992 24.2696 13.5564 23.7586 14.2658C23.3328 14.8445 23.1687 15.5766 23.1687 16.286C23.1687 17.5388 23.1625 18.7895 23.1749 20.0402C24.4046 20.0381 25.6655 20.034 26.9159 20.0361C27.5536 20.0361 28.3596 20.0381 28.9889 20.0423C28.9578 20.231 28.7584 21.1934 28.5299 22.2927C28.2515 23.6409 27.9317 25.1986 27.8299 25.7939C26.2699 25.796 24.7307 25.7939 23.1708 25.7939V25.8126C23.1708 26.9824 23.1708 28.1522 23.1708 29.3241C23.1708 30.8009 23.1708 32.2798 23.1708 33.7586C23.1708 35.7809 23.1687 37.8032 23.1646 39.8276C23.1646 39.8712 23.1625 39.9541 23.1604 39.9977L23.1708 39.9873C24.2883 40.0143 25.4058 39.9935 26.5233 39.9998C28.588 39.9852 30.6673 40.0806 32.7133 39.7446C35.4739 39.3485 37.981 37.4734 39.0902 34.9119C39.811 33.3853 39.9398 31.67 39.9855 30.0086C40.0125 27.839 39.9958 25.6694 39.9958 23.4999V23.4957Z" fill="#963821"/>
</g>
<defs>
<clipPath id="clip0_1989_3848">
<rect width="40" height="40" fill="white" transform="translate(0 0.00390625)"/>
</clipPath>
</defs>
</svg>
