<svg width="40" height="40" viewBox="0 0 40 40" fill="none" xmlns="http://www.w3.org/2000/svg">
<rect width="40" height="40" rx="12" fill="#963821"/>
<path d="M17.3333 26.6667H22.6667V24H17.3333V26.6667ZM17.3333 21.3333H26.6667V18.6667H17.3333V21.3333ZM13.3333 16H26.6667V13.3333H13.3333V16ZM12.8333 33.3333C11.0778 33.3333 9.58333 32.7167 8.35 31.4833C7.11667 30.25 6.5 28.7556 6.5 27C6.5 25.7333 6.82778 24.6 7.48333 23.6C8.13889 22.6 9 21.8444 10.0667 21.3333H6.66667V18.6667H14.6667V26.6667H12V23.4333C11.1778 23.6111 10.5 24.0333 9.96667 24.7C9.43333 25.3667 9.16667 26.1333 9.16667 27C9.16667 28.0222 9.52778 28.8889 10.25 29.6C10.9722 30.3111 11.8333 30.6667 12.8333 30.6667V33.3333ZM17.3333 32V29.3333H29.3333V10.6667H10.6667V16H8V10.6667C8 9.93333 8.26111 9.30556 8.78333 8.78333C9.30556 8.26111 9.93333 8 10.6667 8H29.3333C30.0667 8 30.6944 8.26111 31.2167 8.78333C31.7389 9.30556 32 9.93333 32 10.6667V29.3333C32 30.0667 31.7389 30.6944 31.2167 31.2167C30.6944 31.7389 30.0667 32 29.3333 32H17.3333Z" fill="white"/>
</svg>
