<svg xmlns="http://www.w3.org/2000/svg" width="120" height="120" viewBox="0 0 120 120">
  <path d="M75 115H55C53.5833 115 52.3958 114.521 51.4375 113.562C50.4792 112.604 50 111.417 50 110V80C50 78.5833 50.4792 77.3958 51.4375 76.4375C52.3958 75.4792 53.5833 75 55 75H60V60H20C17.25 60 14.8958 59.0208 12.9375 57.0625C10.9792 55.1042 10 52.75 10 50V30C10 27.25 10.9792 24.8958 12.9375 22.9375C14.8958 20.9792 17.25 20 20 20H30V15C30 13.5833 30.4792 12.3958 31.4375 11.4375C32.3958 10.4792 33.5833 10 35 10H95C96.4167 10 97.6042 10.4792 98.5625 11.4375C99.5208 12.3958 100 13.5833 100 15V35C100 36.4167 99.5208 37.6042 98.5625 38.5625C97.6042 39.5208 96.4167 40 95 40H35C33.5833 40 32.3958 39.5208 31.4375 38.5625C30.4792 37.6042 30 36.4167 30 35V30H20V50H60C62.75 50 65.1042 50.9792 67.0625 52.9375C69.0208 54.8958 70 57.25 70 60V75H75C76.4167 75 77.6042 75.4792 78.5625 76.4375C79.5208 77.3958 80 78.5833 80 80V110C80 111.417 79.5208 112.604 78.5625 113.562C77.6042 114.521 76.4167 115 75 115ZM60 105H70V85H60V105ZM40 30H90V20H40V30Z"/>
</svg>