<svg width="40" height="40" viewBox="0 0 40 40" fill="none" xmlns="http://www.w3.org/2000/svg">
<g clip-path="url(#clip0_245_1159)">
<path d="M18 30H22V18H18V30ZM20 14C20.56 14 21.04 13.8 21.42 13.42C21.8 13.04 22 12.56 22 12C22 11.44 21.8 10.96 21.42 10.58C21.04 10.2 20.56 9.99996 20 9.99996C19.44 9.99996 18.96 10.2 18.58 10.58C18.2 10.96 18 11.44 18 12C18 12.56 18.2 13.04 18.58 13.42C18.96 13.8 19.44 14 20 14ZM20 40C17.24 40 14.64 39.48 12.2 38.42C9.75998 37.36 7.63998 35.94 5.83998 34.14C4.03998 32.34 2.61998 30.22 1.55998 27.78C0.49998 25.34 -0.0200195 22.74 -0.0200195 19.98C-0.0200195 17.22 0.49998 14.62 1.55998 12.18C2.61998 9.73996 4.03998 7.61996 5.83998 5.81996C7.63998 4.01996 9.75998 2.59996 12.2 1.53996C14.64 0.479961 17.24 -0.0400391 20 -0.0400391C22.76 -0.0400391 25.36 0.479961 27.8 1.53996C30.24 2.59996 32.36 4.01996 34.16 5.81996C35.96 7.61996 37.38 9.73996 38.44 12.18C39.5 14.62 40.02 17.22 40.02 19.98C40.02 22.74 39.5 25.34 38.44 27.78C37.38 30.22 35.96 32.34 34.16 34.14C32.36 35.94 30.24 37.36 27.8 38.42C25.36 39.48 22.76 40 20 40ZM20 36C24.46 36 28.26 34.44 31.36 31.34C34.46 28.24 36.02 24.46 36.02 19.98C36.02 15.5 34.46 11.72 31.36 8.61996C28.26 5.51996 24.48 3.95996 20 3.95996C15.52 3.95996 11.74 5.51996 8.63998 8.61996C5.53998 11.72 3.97998 15.5 3.97998 19.98C3.97998 24.46 5.53998 28.24 8.63998 31.34C11.74 34.44 15.52 36 20 36Z" fill="#243772"/>
</g>
<defs>
<clipPath id="clip0_245_1159">
<rect width="40" height="40" fill="white"/>
</clipPath>
</defs>
</svg>
