<svg width="24" height="24" viewBox="0 0 24 24" fill="none" xmlns="http://www.w3.org/2000/svg">
<g clip-path="url(#clip0_156_700)">
<path d="M22.5697 22.1513V22.1465C22.5697 22.1465 22.5673 22.1489 22.5649 22.1513H22.5697Z" fill="#FDFDFD"/>
<path d="M23.9983 6.38853C23.9958 5.98566 24.017 5.5753 23.9146 5.18117C23.8497 4.55628 23.741 3.9314 23.5237 3.33895L23.475 3.30153C23.159 2.37979 22.4958 1.57281 21.6877 1.03898C21.0982 0.599938 20.3888 0.291862 19.6582 0.195822C18.8301 -0.0249454 17.9646 0.02744 17.1153 0.00748363C16.7044 0.0199563 9.23934 0.0112254 7.3172 0C6.11695 0.0112254 4.88797 -0.0299345 3.72894 0.335516C2.79471 0.637356 1.92044 1.1899 1.3122 1.96445C1.05117 2.25382 0.806371 2.57437 0.686471 2.94855L0.673982 2.88244C0.420443 3.44372 0.218111 4.03243 0.140676 4.64484C0.109452 4.90303 0.0819749 5.16246 0.080726 5.42314C0.0594937 5.60524 0.0445061 5.78734 0.0320166 5.96944C-0.0241866 6.82632 -0.00545222 17.271 0.0607426 18.7141C0.0894687 19.4362 0.246838 20.1459 0.486638 20.8269C0.695214 21.2373 0.893798 21.6676 1.21728 22.0031C1.42461 22.3099 1.71561 22.5407 1.98539 22.7889C2.22144 22.9635 2.44251 23.1918 2.74101 23.2516C2.99205 23.4899 3.33926 23.5722 3.6565 23.6857C4.94168 24.0923 6.30804 23.9825 7.63568 24C8.63235 23.9888 17.741 23.9975 18.092 23.9925C18.6827 23.9551 19.276 23.9015 19.8555 23.7742C20.2639 23.6582 20.6673 23.521 21.0458 23.324C21.6265 23.0384 22.1386 22.6342 22.5632 22.1503C22.5632 22.1503 22.5645 22.1491 22.5657 22.1478C23.2139 21.4082 23.6536 20.4827 23.7947 19.5061C23.9821 18.4172 23.9796 9.18616 23.997 6.38977L23.9983 6.38853ZM2.95458 7.35391C3.07948 6.66791 3.27931 5.97693 3.67273 5.3932C3.84259 5.18491 4.00496 4.96788 4.17981 4.76208C4.32719 4.62114 4.47332 4.4802 4.62694 4.34425C5.55866 3.57343 6.77265 3.22295 7.96416 3.15809C8.10154 3.15435 8.24018 3.14562 8.38006 3.13814C9.64526 3.09947 10.9129 3.08949 12.1794 3.09448C13.271 3.09074 14.3613 3.09573 15.4504 3.14687C16.3309 3.15186 17.2227 3.2691 18.0458 3.59339C18.644 3.82663 19.1886 4.18709 19.6457 4.63736C19.8193 4.81696 19.9804 5.00904 20.1315 5.2111C20.3888 5.56782 20.5774 5.96944 20.741 6.37605C20.9159 6.88743 20.9995 7.42127 21.0732 7.95385C21.1881 10.623 21.2081 13.2997 21.0732 15.9676C21.0095 17.6239 20.1827 19.2753 18.7239 20.1247C18.037 20.5226 17.2614 20.7409 16.4783 20.8506C15.1569 20.9691 13.8305 20.9492 12.5054 20.9766C11.2489 20.9716 9.98997 20.9866 8.73352 20.9554C7.94292 20.9242 7.14984 20.8731 6.38048 20.6698C5.64609 20.4478 4.95416 20.0798 4.39588 19.5497C3.92752 19.1182 3.55783 18.5856 3.31178 17.9994C3.07198 17.4406 2.96207 16.8382 2.8759 16.2382C2.86466 15.9389 2.85966 15.6408 2.84093 15.3414C2.8122 13.1038 2.78347 10.8612 2.88589 8.62613C2.95333 8.2058 2.86965 7.77549 2.95333 7.35641L2.95458 7.35391Z" fill="white"/>
<path d="M19.4675 10.0807C19.54 9.57555 19.4501 9.05543 19.4463 8.5453C19.3964 8.0414 19.4363 7.49385 19.1965 7.03485C19.199 6.9887 19.204 6.89641 19.2065 6.85026L19.1128 6.8303L19.1503 6.67813L19.1004 6.71056C19.0666 6.57461 19.0004 6.4636 18.9018 6.37879L18.9392 6.28898L18.8755 6.1917L18.7769 6.1892C18.7219 5.9597 18.5183 5.78259 18.331 5.65038C17.784 5.07788 16.9659 4.87333 16.2053 4.79101C14.8714 4.70744 13.525 4.65506 12.1936 4.7274C11.2269 4.68375 10.2427 4.66878 9.27979 4.74237C8.24315 4.73114 7.14781 4.73114 6.20235 5.21883C5.30685 5.68032 4.70485 6.62201 4.60743 7.61733C4.55747 7.77324 4.53124 7.93913 4.54998 8.10252C4.44382 9.16644 4.4663 10.2403 4.48129 11.3093C4.42258 11.9965 4.48503 12.6862 4.4688 13.3747C4.48004 14.0009 4.44507 14.6295 4.50377 15.2531C4.48254 16.3557 4.68362 17.5618 5.51792 18.3576C6.12617 18.9401 6.96921 19.2157 7.79852 19.2656C9.10119 19.3517 10.4113 19.3803 11.714 19.3404C12.4297 19.3591 13.1528 19.3816 13.8685 19.3292C14.4355 19.3641 15.0038 19.3255 15.5708 19.3018C16.6886 19.2768 17.9763 19.0199 18.6582 18.047C19.0966 17.613 19.2652 16.9868 19.3789 16.3994C19.55 14.8253 19.5 13.2388 19.505 11.6585C19.495 11.1321 19.5312 10.6045 19.465 10.0819L19.4675 10.0807ZM15.7044 14.8677C15.1499 15.5076 14.453 16.0327 13.6524 16.3233C12.8668 16.6151 12.0125 16.69 11.1832 16.579C10.0854 16.3557 9.05248 15.7957 8.33058 14.9326C7.80102 14.3002 7.45631 13.5244 7.32517 12.7112C7.22025 11.9716 7.29144 11.2082 7.54498 10.506C7.89844 9.53563 8.58537 8.69622 9.46338 8.15241C10.5587 7.4689 11.9401 7.26061 13.1878 7.58989C14.6678 7.95285 15.9218 9.08786 16.4463 10.5147C16.9671 11.9703 16.6686 13.6604 15.7069 14.8652L15.7044 14.8677ZM17.9163 7.57742C17.7552 8.14118 17.0833 8.47795 16.5312 8.28337C16.179 8.19357 15.9492 7.89048 15.7819 7.58739C15.7044 7.15459 15.8318 6.66566 16.2103 6.40748C16.6449 6.07445 17.2719 6.17174 17.6728 6.51474C17.8951 6.81533 18.0562 7.20573 17.9163 7.57742Z" fill="white"/>
<path d="M13.6198 9.49566C12.7231 8.93314 11.5303 8.89822 10.5886 9.37218C9.96036 9.67651 9.47451 10.2153 9.17102 10.8365C9.00241 11.2905 8.89625 11.7719 8.93122 12.2584C9.03113 13.7152 10.3325 14.9537 11.7901 14.9974C12.5295 15.071 13.2651 14.8215 13.8621 14.3949C14.0907 14.1954 14.3342 14.0008 14.4878 13.7339C15.0336 13.0504 15.1585 12.1074 14.9587 11.2718C14.7576 10.5396 14.268 9.89105 13.6198 9.49441V9.49566Z" fill="white"/>
</g>
<defs>
<clipPath id="clip0_156_700">
<rect width="24" height="24" fill="white"/>
</clipPath>
</defs>
</svg>
