<svg width="40" height="40" viewBox="0 0 40 40" fill="none" xmlns="http://www.w3.org/2000/svg">
<g clip-path="url(#clip0_1995_3859)">
<path d="M37.6116 36.9182V36.9141C37.6116 36.9141 37.6095 36.9161 37.6074 36.9182H37.6116Z" fill="white"/>
<path d="M39.9972 10.6514C39.9931 9.98 40.0285 9.29608 39.8578 8.63918C39.7495 7.59771 39.5684 6.55624 39.2062 5.56882L39.125 5.50645C38.5984 3.97023 37.4931 2.62526 36.1463 1.73554C35.1638 1.0038 33.9814 0.490342 32.7637 0.330276C31.3836 -0.0376695 29.941 0.0496395 28.5255 0.016379C27.8407 0.0371668 15.399 0.0226153 12.1954 0.00390625C10.195 0.0226153 8.1467 -0.0459846 6.21497 0.5631C4.65794 1.06617 3.20082 1.98707 2.18708 3.27799C1.75203 3.76027 1.34403 4.29452 1.1442 4.91816L1.12338 4.80798C0.70082 5.74343 0.3636 6.72462 0.234541 7.74531C0.182501 8.17561 0.136706 8.608 0.134625 9.04247C0.0992375 9.34597 0.0742583 9.64947 0.0534423 9.95298C-0.0402296 11.3811 -0.00900565 28.7889 0.101319 31.194C0.149196 32.3976 0.411477 33.5805 0.811144 34.7155C1.15877 35.3994 1.48975 36.1166 2.02888 36.6758C2.37442 37.1872 2.85944 37.5717 3.30906 37.9854C3.70248 38.2764 4.07093 38.6569 4.56843 38.7566C4.98683 39.1537 5.56552 39.2909 6.09424 39.4801C8.23621 40.1577 10.5135 39.9748 12.7262 40.0039C14.3873 39.9852 29.5684 39.9997 30.1534 39.9914C31.138 39.9291 32.1267 39.8397 33.0926 39.6276C33.7733 39.4343 34.4456 39.2057 35.0763 38.8772C36.0443 38.4012 36.8977 37.7276 37.6055 36.9211C37.6055 36.9211 37.6076 36.919 37.6096 36.9169C38.69 35.6842 39.4227 34.1417 39.6579 32.514C39.9702 30.6993 39.966 15.3142 39.9952 10.6535L39.9972 10.6514ZM4.92438 12.2604C5.13254 11.1171 5.4656 9.96545 6.1213 8.99258C6.4044 8.64542 6.67501 8.28371 6.96643 7.94071C7.21206 7.70581 7.45561 7.47091 7.71164 7.24432C9.26452 5.95963 11.2878 5.37549 13.2737 5.26739C13.5027 5.26116 13.7337 5.2466 13.9668 5.23413C16.0755 5.16969 18.1883 5.15306 20.2991 5.16137C22.1184 5.15514 23.9356 5.16345 25.7508 5.24868C27.2183 5.257 28.7046 5.4524 30.0763 5.99289C31.0734 6.38162 31.981 6.98239 32.7429 7.73283C33.0322 8.03218 33.3007 8.35231 33.5526 8.68907C33.9814 9.28361 34.2957 9.95298 34.5684 10.6307C34.8599 11.483 34.9993 12.3727 35.1221 13.2603C35.3136 17.7089 35.3469 22.17 35.1221 26.6165C35.016 29.3772 33.638 32.1295 31.2066 33.5451C30.0618 34.2083 28.7691 34.572 27.4639 34.755C25.2616 34.9525 23.0509 34.9192 20.8424 34.9649C18.7483 34.9566 16.65 34.9816 14.5559 34.9296C13.2383 34.8776 11.9165 34.7924 10.6342 34.4535C9.41023 34.0835 8.25702 33.4703 7.32655 32.5868C6.54595 31.8675 5.9298 30.9799 5.51972 30.0029C5.12005 29.0716 4.93687 28.0675 4.79324 27.0676C4.77451 26.5687 4.76618 26.0719 4.73496 25.573C4.68708 21.8436 4.6392 18.106 4.8099 14.3808C4.9223 13.6802 4.78283 12.9631 4.9223 12.2646L4.92438 12.2604Z" fill="#963821"/>
<path d="M32.4448 16.8052C32.5655 15.9633 32.4156 15.0965 32.4094 14.2462C32.3261 13.4064 32.3927 12.4938 31.9931 11.7288C31.9972 11.6519 32.0056 11.4981 32.0097 11.4212L31.8536 11.3879L31.916 11.1343L31.8328 11.1883C31.7766 10.9618 31.6663 10.7767 31.5018 10.6354L31.5643 10.4857L31.4581 10.3236L31.2936 10.3194C31.2021 9.93691 30.8628 9.64172 30.5505 9.42137C29.6388 8.46721 28.2753 8.12629 27.0076 7.98909C24.7845 7.84981 22.5405 7.7625 20.3215 7.88307C18.7104 7.81031 17.0701 7.78537 15.4652 7.90802C13.7374 7.88931 11.9119 7.88931 10.3361 8.70211C8.84361 9.47126 7.84028 11.0407 7.67791 12.6996C7.59465 12.9595 7.55093 13.2359 7.58216 13.5083C7.40522 15.2815 7.44269 17.0713 7.46767 18.8528C7.36984 19.9982 7.47392 21.1478 7.44685 22.2953C7.46559 23.3388 7.4073 24.3866 7.50514 25.4259C7.46975 27.2636 7.80489 29.2738 9.1954 30.6C10.2091 31.5708 11.6142 32.0303 12.9964 32.1134C15.1675 32.2568 17.3511 32.3046 19.5222 32.2381C20.715 32.2693 21.9202 32.3067 23.113 32.2194C24.058 32.2776 25.0051 32.2132 25.9502 32.1737C27.8132 32.1321 29.9593 31.7039 31.0959 30.0824C31.8265 29.359 32.1076 28.3155 32.297 27.3363C32.5822 24.7129 32.4989 22.0687 32.5072 19.4349C32.4906 18.5576 32.5509 17.6783 32.4406 16.8073L32.4448 16.8052ZM26.1729 24.7836C25.2487 25.85 24.0872 26.7252 22.7528 27.2095C21.4435 27.696 20.0197 27.8207 18.6375 27.6357C16.8078 27.2636 15.0863 26.3302 13.8832 24.8917C13.0006 23.8378 12.426 22.5447 12.2075 21.1894C12.0326 19.9567 12.1513 18.6844 12.5738 17.5141C13.1629 15.8968 14.3078 14.4978 15.7712 13.5914C17.5967 12.4522 19.899 12.1051 21.9785 12.6539C24.4452 13.2588 26.5351 15.1505 27.4094 17.5286C28.2774 19.9546 27.7799 22.7713 26.1771 24.7794L26.1729 24.7836ZM29.8594 12.6331C29.5909 13.5727 28.471 14.134 27.5509 13.8097C26.9639 13.66 26.5809 13.1549 26.302 12.6497C26.1729 11.9284 26.3852 11.1135 27.016 10.6832C27.7404 10.1282 28.7853 10.2903 29.4535 10.862C29.824 11.363 30.0926 12.0136 29.8594 12.6331Z" fill="#963821"/>
<path d="M22.6985 15.8307C21.2039 14.8931 19.2159 14.8349 17.6464 15.6249C16.5994 16.1321 15.7896 17.0301 15.2838 18.0654C15.0028 18.822 14.8259 19.6244 14.8841 20.4352C15.0507 22.8632 17.2197 24.9274 19.6489 25.0002C20.8812 25.1228 22.1073 24.7071 23.1023 23.9961C23.4832 23.6635 23.8891 23.3392 24.1452 22.8944C25.0548 21.7552 25.263 20.1836 24.9299 18.7908C24.5948 17.5706 23.7788 16.4896 22.6985 15.8286V15.8307Z" fill="#963821"/>
</g>
<defs>
<clipPath id="clip0_1995_3859">
<rect width="40" height="40" fill="white" transform="translate(-0.000976562 0.00390625)"/>
</clipPath>
</defs>
</svg>
