<svg width="25" height="25" viewBox="0 0 25 25" fill="none" xmlns="http://www.w3.org/2000/svg">
<g clip-path="url(#clip0_209_2632)">
<path d="M20.4654 0H4.5346C2.04057 0 0 2.03753 0 4.5265V20.428C0 22.9179 2.04057 24.9545 4.5346 24.9545H20.4644C22.9584 24.9545 24.999 22.9179 24.999 20.428V4.5265C24.999 2.03652 22.9584 0 20.4644 0H20.4654ZM8.32726 19.5858H5.16823V9.0702H8.32726V19.5858ZM6.73003 8.04891C5.68849 8.04891 4.84433 7.20576 4.84433 6.16624C4.84433 5.12673 5.68849 4.28357 6.73003 4.28357C7.77157 4.28357 8.61573 5.12673 8.61573 6.16624C8.61573 7.20576 7.77157 8.04891 6.73003 8.04891ZM20.0939 19.5737L16.9744 19.5615C17.0098 18.1242 17.0118 16.4399 16.9744 14.8569C16.9734 14.1413 16.9713 13.3659 16.691 12.7718C16.5695 12.5157 16.3499 12.2738 16.1262 12.1513C15.8529 12.0015 15.5067 11.9367 15.1373 11.9509C13.3943 12.0167 13.3234 13.5431 13.3204 14.8741C13.3173 16.3934 13.3163 18.1273 13.3204 19.5686C12.3183 19.5716 11.3254 19.5716 10.3172 19.5686V9.07122H13.3356C13.3224 9.52265 13.3295 9.86983 13.3295 10.3192C14.2587 9.32123 14.8225 9.06717 16.442 9.06818C17.1616 9.06818 17.8054 9.24734 18.3449 9.5348C18.5837 9.66233 18.8429 9.85364 19.0362 10.0308C19.6152 10.5632 20.0686 11.7272 20.1081 12.5025C20.1456 14.5654 20.096 18.026 20.0939 19.5737Z" fill="white"/>
</g>
<defs>
<clipPath id="clip0_209_2632">
<rect width="25" height="24.9555" fill="white"/>
</clipPath>
</defs>
</svg>
