<svg width="40" height="40" viewBox="0 0 40 40" fill="none" xmlns="http://www.w3.org/2000/svg">
<rect width="40" height="40" rx="12" fill="#963821"/>
<path d="M24 32L16 29.2L9.8 31.6C9.35556 31.7778 8.94444 31.7278 8.56667 31.45C8.18889 31.1722 8 30.8 8 30.3333V11.6667C8 11.3778 8.08333 11.1222 8.25 10.9C8.41667 10.6778 8.64444 10.5111 8.93333 10.4L16 8L24 10.8L30.2 8.4C30.6444 8.22222 31.0556 8.27222 31.4333 8.55C31.8111 8.82778 32 9.2 32 9.66667V28.3333C32 28.6222 31.9167 28.8778 31.75 29.1C31.5833 29.3222 31.3556 29.4889 31.0667 29.6L24 32ZM22.6667 28.7333V13.1333L17.3333 11.2667V26.8667L22.6667 28.7333ZM25.3333 28.7333L29.3333 27.4V11.6L25.3333 13.1333V28.7333ZM10.6667 28.4L14.6667 26.8667V11.2667L10.6667 12.6V28.4Z" fill="white"/>
</svg>
