<svg width="24" height="24" viewBox="0 0 24 24" fill="none" xmlns="http://www.w3.org/2000/svg">
<g clip-path="url(#clip0_156_696)">
<path d="M8.563 6.93435H6.95361C7.01345 7.42931 7.09822 7.91679 7.20668 8.39929C7.31513 8.88178 7.47221 9.35804 7.67666 9.82807L8.87092 8.63368L8.563 6.93311V6.93435Z" fill="white"/>
<path d="M14.153 16.3061C14.6229 16.5105 15.1029 16.6739 15.5916 16.7948C16.0802 16.9157 16.5714 16.9943 17.0663 17.0304V15.4383L15.3659 15.0942L14.1542 16.3061H14.153Z" fill="white"/>
<path d="M19.0682 -0.000218091H4.93148C2.20885 -0.000218091 -0.000163665 2.20778 -0.000163665 4.93069V11.8202C-0.00141029 11.9337 -0.00141029 12.0459 -0.000163665 12.1594V19.0701C-0.000163665 21.7918 2.20761 23.9998 4.93023 23.9998H19.0669C21.7896 23.9998 23.9973 21.7918 23.9973 19.0701V12.1731C23.9986 12.0546 23.9986 11.9349 23.9973 11.8165V4.92944C23.9973 2.20653 21.7896 -0.00146484 19.0669 -0.00146484L19.0682 -0.000218091ZM18.5122 17.7535C18.5122 17.9705 18.4399 18.1513 18.2953 18.2959C18.1507 18.4405 17.9699 18.5128 17.753 18.5128C16.2458 18.5128 14.7561 18.1837 13.2851 17.5266C11.8141 16.8696 10.4752 15.937 9.26973 14.7314C8.06425 13.5258 7.13177 12.1868 6.4748 10.7156C5.81783 9.24446 5.48872 7.75459 5.48872 6.24726C5.48872 6.03033 5.56103 5.84955 5.70563 5.70492C5.85024 5.5603 6.031 5.48799 6.24791 5.48799H9.17873C9.34702 5.48799 9.49786 5.54534 9.63125 5.66004C9.76339 5.77474 9.84193 5.91064 9.86686 6.06773L10.3368 8.60113C10.3605 8.79438 10.3555 8.95646 10.3181 9.08986C10.2807 9.22326 10.2159 9.33672 10.1187 9.43396L8.36343 11.2068C8.60403 11.6532 8.89076 12.0846 9.22236 12.501C9.55396 12.9174 9.91922 13.3176 10.3169 13.7041C10.6909 14.0781 11.0823 14.4247 11.4925 14.7439C11.9026 15.0631 12.3364 15.356 12.7952 15.6216L14.4956 13.921C14.604 13.8126 14.7462 13.7315 14.9207 13.6767C15.0952 13.6218 15.2672 13.6068 15.4368 13.6318L17.9338 14.138C18.1021 14.1866 18.2417 14.2739 18.3501 14.3998C18.4586 14.5257 18.5134 14.6678 18.5134 14.8249V17.756L18.5122 17.7535Z" fill="white"/>
</g>
<defs>
<clipPath id="clip0_156_696">
<rect width="24" height="24" fill="white"/>
</clipPath>
</defs>
</svg>
