<svg width="40" height="40" viewBox="0 0 40 40" fill="none" xmlns="http://www.w3.org/2000/svg">
<g clip-path="url(#clip0_1989_3850)">
<path d="M14.2722 11.5607H11.5898C11.6896 12.3856 11.8309 13.1981 12.0116 14.0022C12.1924 14.8064 12.4542 15.6002 12.7949 16.3835L14.7854 14.3929L14.2722 11.5586V11.5607Z" fill="white"/>
<path d="M23.5879 27.1818C24.3712 27.5226 25.1711 27.7948 25.9856 27.9964C26.8 28.198 27.6186 28.3289 28.4435 28.3891V25.7356L25.6095 25.1621L23.59 27.1818H23.5879Z" fill="white"/>
<path d="M31.7802 0.00403105H8.21901C3.6813 0.00403105 -0.000394845 3.68403 -0.000394845 8.22221V19.7048C-0.00247255 19.8939 -0.00247255 20.0809 -0.000394845 20.27V31.7879C-0.000394845 36.324 3.67922 40.004 8.21693 40.004H31.7781C36.3158 40.004 39.9955 36.324 39.9955 31.7879V20.2929C39.9975 20.0955 39.9975 19.896 39.9955 19.6986V8.22013C39.9955 3.68195 36.3158 0.00195312 31.7781 0.00195312L31.7802 0.00403105ZM30.8535 29.5936C30.8535 29.9552 30.733 30.2565 30.492 30.4975C30.251 30.7386 29.9497 30.8591 29.5882 30.8591C27.0763 30.8591 24.5934 30.3105 22.1417 29.2155C19.69 28.1204 17.4586 26.5661 15.4494 24.5568C13.4403 22.5474 11.8862 20.3157 10.7912 17.8638C9.69626 15.4118 9.14775 12.9287 9.14775 10.4165C9.14775 10.0549 9.26825 9.75364 9.50927 9.5126C9.75028 9.27156 10.0515 9.15104 10.4131 9.15104H15.2978C15.5782 9.15104 15.8296 9.24663 16.052 9.4378C16.2722 9.62896 16.4031 9.85546 16.4447 10.1173L17.2279 14.3396C17.2674 14.6617 17.2591 14.9318 17.1968 15.1542C17.1344 15.3765 17.0264 15.5656 16.8643 15.7277L13.9389 18.6825C14.3399 19.4264 14.8178 20.1453 15.3705 20.8394C15.9231 21.5334 16.5319 22.2004 17.1947 22.8445C17.818 23.4679 18.4704 24.0456 19.154 24.5775C19.8375 25.1095 20.5606 25.5978 21.3252 26.0404L24.1592 23.2061C24.3399 23.0253 24.5768 22.8903 24.8677 22.7988C25.1586 22.7074 25.4453 22.6825 25.7278 22.724L29.8895 23.5677C30.17 23.6487 30.4027 23.7942 30.5834 24.004C30.7642 24.2139 30.8556 24.4508 30.8556 24.7126V29.5978L30.8535 29.5936Z" fill="#963821"/>
</g>
<defs>
<clipPath id="clip0_1989_3850">
<rect width="40" height="40" fill="white" transform="translate(0 0.00390625)"/>
</clipPath>
</defs>
</svg>
