<svg xmlns="http://www.w3.org/2000/svg" width="120" height="120" viewBox="0 0 120 120">
  <path d="M52.5 95C50.4167 95 48.6458 94.8958 47.1875 94.6875C45.7292 94.4792 45 93.75 45 92.5C45 91.0833 45.7292 89.8958 47.1875 88.9375C48.6458 87.9792 50.4167 87.5 52.5 87.5C54.5833 87.5 56.3542 87.9792 57.8125 88.9375C59.2708 89.8958 60 91.0833 60 92.5C60 93.75 59.2708 94.4792 57.8125 94.6875C56.3542 94.8958 54.5833 95 52.5 95ZM92.5 105C90.4167 105 88.6458 104.896 87.1875 104.688C85.7292 104.479 85 103.75 85 102.5C85 101.083 85.7292 99.8958 87.1875 98.9375C88.6458 97.9792 90.4167 97.5 92.5 97.5C94.5833 97.5 96.3542 97.9792 97.8125 98.9375C99.2708 99.8958 100 101.083 100 102.5C100 103.75 99.2708 104.479 97.8125 104.688C96.3542 104.896 94.5833 105 92.5 105ZM67.5 105C65.4167 105 63.6458 104.896 62.1875 104.688C60.7292 104.479 60 103.75 60 102.5C60 101.083 60.7292 99.8958 62.1875 98.9375C63.6458 97.9792 65.4167 97.5 67.5 97.5C69.5833 97.5 71.3542 97.9792 72.8125 98.9375C74.2708 99.8958 75 101.083 75 102.5C75 103.75 74.2708 104.479 72.8125 104.688C71.3542 104.896 69.5833 105 67.5 105ZM27.5 105C25.4167 105 23.6458 104.896 22.1875 104.688C20.7292 104.479 20 103.75 20 102.5C20 101.083 20.7292 99.8958 22.1875 98.9375C23.6458 97.9792 25.4167 97.5 27.5 97.5C29.5833 97.5 31.3542 97.9792 32.8125 98.9375C34.2708 99.8958 35 101.083 35 102.5C35 103.75 34.2708 104.479 32.8125 104.688C31.3542 104.896 29.5833 105 27.5 105ZM47.5 110C45.4167 110 43.6458 109.896 42.1875 109.688C40.7292 109.479 40 108.75 40 107.5C40 106.083 40.7292 104.896 42.1875 103.938C43.6458 102.979 45.4167 102.5 47.5 102.5C49.5833 102.5 51.3542 102.979 52.8125 103.938C54.2708 104.896 55 106.083 55 107.5C55 108.75 54.2708 109.479 52.8125 109.688C51.3542 109.896 49.5833 110 47.5 110ZM30 80V85C30 86.4167 29.5208 87.6042 28.5625 88.5625C27.6042 89.5208 26.4167 90 25 90H20C18.5833 90 17.3958 89.5208 16.4375 88.5625C15.4792 87.6042 15 86.4167 15 85V45L25.5 15C26 13.5 26.8958 12.2917 28.1875 11.375C29.4792 10.4583 30.9167 10 32.5 10H87.5C89.0833 10 90.5208 10.4583 91.8125 11.375C93.1042 12.2917 94 13.5 94.5 15L105 45V85C105 86.4167 104.521 87.6042 103.562 88.5625C102.604 89.5208 101.417 90 100 90H95C93.5833 90 92.3958 89.5208 91.4375 88.5625C90.4792 87.6042 90 86.4167 90 85V80H30ZM29 35H91L85.75 20H34.25L29 35ZM37.5 65C39.5833 65 41.3542 64.2708 42.8125 62.8125C44.2708 61.3542 45 59.5833 45 57.5C45 55.4167 44.2708 53.6458 42.8125 52.1875C41.3542 50.7292 39.5833 50 37.5 50C35.4167 50 33.6458 50.7292 32.1875 52.1875C30.7292 53.6458 30 55.4167 30 57.5C30 59.5833 30.7292 61.3542 32.1875 62.8125C33.6458 64.2708 35.4167 65 37.5 65ZM82.5 65C84.5833 65 86.3542 64.2708 87.8125 62.8125C89.2708 61.3542 90 59.5833 90 57.5C90 55.4167 89.2708 53.6458 87.8125 52.1875C86.3542 50.7292 84.5833 50 82.5 50C80.4167 50 78.6458 50.7292 77.1875 52.1875C75.7292 53.6458 75 55.4167 75 57.5C75 59.5833 75.7292 61.3542 77.1875 62.8125C78.6458 64.2708 80.4167 65 82.5 65ZM25 70H95V45H25V70Z"/>
</svg>