<svg width="25" height="27" viewBox="0 0 25 27" fill="none" xmlns="http://www.w3.org/2000/svg">
<path fill-rule="evenodd" clip-rule="evenodd" d="M7.84336 11.4417C7.84336 10.4508 7.67643 9.38178 7.76141 8.41518C7.87674 7.10843 8.43517 6.09113 9.30722 5.34109C10.8803 3.98786 13.2749 3.76919 15.0676 4.74107C18.4506 6.57495 17.2356 10.2174 17.4369 11.4291C17.7576 11.4322 17.9366 11.4438 18.2158 11.3424C18.4182 11.2685 18.6741 11.1554 18.922 11.1576C19.6099 11.1639 20.5265 12.1125 18.7035 12.8245C18.3322 12.9693 17.6999 13.114 17.5876 13.4753C17.4025 14.0732 18.4404 15.5521 18.8754 16.018C19.1253 16.2863 19.4066 16.5377 19.7283 16.7385C20.3727 17.1409 21.4359 17.3142 21.5513 17.5751C21.6747 17.8519 21.4258 18.1181 21.3145 18.2121C20.7541 18.6864 19.6979 18.7266 19.3196 18.8924C18.8542 19.0953 19.1719 19.99 18.6863 20.0735C18.4728 20.1094 18.1258 20.0481 17.9164 20.0143C16.5426 19.7904 16.0398 20.0671 15.1849 20.6925C14.4434 21.2344 13.8748 21.676 12.6477 21.6961C11.373 21.7162 10.8338 21.2387 10.0852 20.6936C9.75134 20.4506 9.4094 20.1886 8.92583 20.0608C7.58033 19.7069 6.51 20.439 6.30868 19.8506C6.2672 19.728 6.26113 19.5918 6.24595 19.4555C6.17311 18.8153 5.75834 18.8407 5.20091 18.7055C4.71734 18.5882 4.25704 18.4699 3.92825 18.192C3.81697 18.098 3.56507 17.8255 3.70569 17.5614C3.9151 17.1705 5.0522 17.4853 6.49179 15.8891C6.75684 15.5954 7.84639 14.1809 7.66632 13.5207C7.55099 13.096 6.97839 12.983 6.56564 12.8256C4.69306 12.1094 5.66324 11.1586 6.34914 11.1808C6.86306 11.1966 6.72244 11.4301 7.84336 11.4417ZM0 4.58155V21.4732C0 22.5032 0.470419 23.5416 1.07438 24.318C1.12091 24.3782 1.1543 24.4057 1.20083 24.468C1.48612 24.8578 2.16595 25.3417 2.61411 25.5772C3.02383 25.7928 3.76335 26.0547 4.36225 26.0547H20.661C21.4542 26.0547 22.4537 25.6237 23.0839 25.1293L23.9317 24.3001C24.566 23.4476 24.999 22.4609 24.999 21.3454V4.68402C24.999 3.90652 24.7461 3.11106 24.388 2.4561C24.1431 2.00819 24.0227 1.83389 23.6575 1.45253C23.3854 1.16836 23.3844 1.16203 23.0708 0.913775C22.9575 0.823982 22.8472 0.763768 22.7248 0.685595C22.5953 0.604253 22.5022 0.551434 22.3606 0.477487C21.9306 0.252477 21.2144 0 20.5882 0H4.46038C3.56102 0 2.70618 0.370792 1.98487 0.870463C1.59538 1.13984 1.1634 1.60782 0.871034 2.01136C0.413767 2.64519 0 3.71637 0 4.58155Z" fill="white"/>
</svg>
