<svg xmlns="http://www.w3.org/2000/svg" width="120" height="120" viewBox="0 0 120 120">
  <path d="M60 90C62.1667 90 63.9583 89.2917 65.375 87.875C66.7917 86.4583 67.5 84.6667 67.5 82.5C67.5 80.3333 66.7917 78.5417 65.375 77.125C63.9583 75.7083 62.1667 75 60 75C57.8333 75 56.0417 75.7083 54.625 77.125C53.2083 78.5417 52.5 80.3333 52.5 82.5C52.5 84.6667 53.2083 86.4583 54.625 87.875C56.0417 89.2917 57.8333 90 60 90ZM60 67.5C62.1667 67.5 63.9583 66.7917 65.375 65.375C66.7917 63.9583 67.5 62.1667 67.5 60C67.5 57.8333 66.7917 56.0417 65.375 54.625C63.9583 53.2083 62.1667 52.5 60 52.5C57.8333 52.5 56.0417 53.2083 54.625 54.625C53.2083 56.0417 52.5 57.8333 52.5 60C52.5 62.1667 53.2083 63.9583 54.625 65.375C56.0417 66.7917 57.8333 67.5 60 67.5ZM60 45C62.1667 45 63.9583 44.2917 65.375 42.875C66.7917 41.4583 67.5 39.6667 67.5 37.5C67.5 35.3333 66.7917 33.5417 65.375 32.125C63.9583 30.7083 62.1667 30 60 30C57.8333 30 56.0417 30.7083 54.625 32.125C53.2083 33.5417 52.5 35.3333 52.5 37.5C52.5 39.6667 53.2083 41.4583 54.625 42.875C56.0417 44.2917 57.8333 45 60 45ZM35 75V69.25C30.75 68.0833 27.1875 65.75 24.3125 62.25C21.4375 58.75 20 54.6667 20 50H35V44.25C30.75 43.0833 27.1875 40.75 24.3125 37.25C21.4375 33.75 20 29.6667 20 25H35C35 22.25 35.9792 19.8958 37.9375 17.9375C39.8958 15.9792 42.25 15 45 15H75C77.75 15 80.1042 15.9792 82.0625 17.9375C84.0208 19.8958 85 22.25 85 25H100C100 29.6667 98.5625 33.75 95.6875 37.25C92.8125 40.75 89.25 43.0833 85 44.25V50H100C100 54.6667 98.5625 58.75 95.6875 62.25C92.8125 65.75 89.25 68.0833 85 69.25V75H100C100 79.6667 98.5625 83.75 95.6875 87.25C92.8125 90.75 89.25 93.0833 85 94.25V95C85 97.75 84.0208 100.104 82.0625 102.062C80.1042 104.021 77.75 105 75 105H45C42.25 105 39.8958 104.021 37.9375 102.062C35.9792 100.104 35 97.75 35 95V94.25C30.75 93.0833 27.1875 90.75 24.3125 87.25C21.4375 83.75 20 79.6667 20 75H35ZM45 95H75V25H45V95Z"/>
</svg>