<svg width="24" height="24" viewBox="0 0 24 24" fill="none" xmlns="http://www.w3.org/2000/svg">
<g clip-path="url(#clip0_156_691)">
<path d="M7.35132 6.66748C8.51816 8.19974 9.68624 9.72951 10.8568 11.258C12.0399 12.804 13.2229 14.3487 14.406 15.8935C14.7201 16.3049 15.0355 16.7163 15.3497 17.1277C15.5591 17.1277 15.7685 17.1277 15.978 17.1277C16.1762 17.1277 16.3756 17.1277 16.5738 17.1277C15.7336 16.0169 14.8946 14.9048 14.0544 13.7939C12.258 11.4189 10.4616 9.04379 8.66526 6.66748C8.22769 6.66748 7.79013 6.66748 7.35256 6.66748H7.35132Z" fill="white"/>
<path d="M19.0681 -0.00021809H4.93136C2.20873 -0.00021809 -0.000285735 2.20778 -0.000285735 4.93069V11.8203C-0.00153236 11.9337 -0.00153236 12.0459 -0.000285735 12.1594V19.0701C-0.000285735 21.7918 2.20748 23.9998 4.93011 23.9998H19.0668C21.7895 23.9998 23.9972 21.7918 23.9972 19.0701V12.1731C23.9985 12.0546 23.9985 11.935 23.9972 11.8165V4.92944C23.9972 2.20654 21.7895 -0.00146484 19.0668 -0.00146484L19.0681 -0.00021809ZM14.7398 18.4567C13.5804 16.9344 12.4161 15.4159 11.253 13.8973C10.0313 15.29 8.80836 16.6813 7.59415 18.0814C7.48694 18.2049 7.37848 18.3295 7.27127 18.453C6.53327 18.4629 5.79402 18.453 5.05602 18.458C6.76888 16.4806 8.50169 14.5182 10.2195 12.5446C8.40321 10.1708 6.58937 7.79698 4.77179 5.42316C6.28893 5.42067 7.84846 5.42565 9.3656 5.42067C9.4566 5.53911 9.54761 5.65755 9.63736 5.77599C10.5985 7.0402 11.5185 8.31313 12.4822 9.58108C13.6939 8.19469 14.9081 6.8083 16.1223 5.42441C16.8591 5.42066 17.5946 5.42316 18.3313 5.42441C17.8626 5.96051 17.3926 6.49661 16.9226 7.03272C15.7807 8.33557 14.6401 9.63968 13.5044 10.9475C15.4005 13.4485 17.3403 15.9495 19.2264 18.458C17.7442 18.458 16.2208 18.458 14.7385 18.458L14.7398 18.4567Z" fill="white"/>
</g>
<defs>
<clipPath id="clip0_156_691">
<rect width="24" height="24" fill="white"/>
</clipPath>
</defs>
</svg>
