<svg width="24" height="24" viewBox="0 0 24 24" fill="none" xmlns="http://www.w3.org/2000/svg">
<g clip-path="url(#clip0_301_294)">
<path d="M12.006 24C11.6828 24 11.3835 23.9402 11.0963 23.8204C10.809 23.7007 10.5456 23.5332 10.3062 23.3057L0.694264 13.7057C0.478803 13.4663 0.299252 13.203 0.179551 12.9157C0.0598504 12.6284 0 12.3172 0 12.006C0 11.6948 0.0598504 11.3716 0.179551 11.0723C0.299252 10.7731 0.466833 10.5097 0.694264 10.2943L10.2943 0.694264C10.5337 0.454863 10.797 0.275312 11.0843 0.167581C11.3716 0.0598504 11.6828 0 11.994 0C12.3052 0 12.6284 0.0598504 12.9277 0.167581C13.2269 0.275312 13.4903 0.454863 13.7057 0.694264L23.3177 10.3062C23.5571 10.5217 23.7367 10.785 23.8444 11.0843C23.9521 11.3835 24.012 11.6948 24.012 12.018C24.012 12.3411 23.9521 12.6404 23.8444 12.9277C23.7367 13.215 23.5571 13.4783 23.3177 13.7177L13.7057 23.3297C13.4903 23.5451 13.2269 23.7247 12.9277 23.8444C12.6284 23.9641 12.3172 24.0239 11.994 24.0239L12.006 24ZM12.006 21.606L21.618 11.994L12.006 2.39402L2.39402 12.006L12.006 21.618V21.606ZM10.809 13.203H13.203V6.02095H10.809V13.203ZM12.006 16.794C12.3411 16.794 12.6284 16.6743 12.8559 16.4469C13.0833 16.2195 13.203 15.9322 13.203 15.597C13.203 15.2618 13.0833 14.9746 12.8559 14.7471C12.6284 14.5197 12.3411 14.4 12.006 14.4C11.6708 14.4 11.3835 14.5197 11.1561 14.7471C10.9287 14.9746 10.809 15.2618 10.809 15.597C10.809 15.9322 10.9287 16.2195 11.1561 16.4469C11.3835 16.6743 11.6708 16.794 12.006 16.794Z" fill="white"/>
</g>
<defs>
<clipPath id="clip0_301_294">
<rect width="24" height="24" fill="white"/>
</clipPath>
</defs>
</svg>
