<svg width="40" height="40" viewBox="0 0 40 40" fill="none" xmlns="http://www.w3.org/2000/svg">
<g clip-path="url(#clip0_244_1110)">
<path d="M20.01 40C19.4713 40 18.9726 39.9002 18.4938 39.7007C18.015 39.5012 17.5761 39.2219 17.1771 38.8429L1.15711 22.8429C0.798005 22.4439 0.498753 22.005 0.299252 21.5262C0.0997506 21.0474 0 20.5287 0 20.01C0 19.4913 0.0997506 18.9526 0.299252 18.4539C0.498753 17.9551 0.778055 17.5162 1.15711 17.1571L17.1571 1.15711C17.5561 0.758105 17.995 0.458853 18.4738 0.279302C18.9526 0.0997506 19.4713 0 19.99 0C20.5087 0 21.0474 0.0997506 21.5461 0.279302C22.0449 0.458853 22.4838 0.758105 22.8429 1.15711L38.8628 17.1771C39.2618 17.5362 39.5611 17.9751 39.7407 18.4738C39.9202 18.9726 40.02 19.4913 40.02 20.0299C40.02 20.5686 39.9202 21.0673 39.7407 21.5461C39.5611 22.0249 39.2618 22.4638 38.8628 22.8628L22.8429 38.8828C22.4838 39.2419 22.0449 39.5411 21.5461 39.7407C21.0474 39.9402 20.5287 40.0399 19.99 40.0399L20.01 40ZM20.01 36.01L36.0299 19.99L20.01 3.99003L3.99003 20.01L20.01 36.0299V36.01ZM18.015 22.005H22.005V10.0349H18.015V22.005ZM20.01 27.99C20.5686 27.99 21.0474 27.7905 21.4264 27.4115C21.8055 27.0324 22.005 26.5536 22.005 25.995C22.005 25.4364 21.8055 24.9576 21.4264 24.5786C21.0474 24.1995 20.5686 24 20.01 24C19.4514 24 18.9726 24.1995 18.5935 24.5786C18.2145 24.9576 18.015 25.4364 18.015 25.995C18.015 26.5536 18.2145 27.0324 18.5935 27.4115C18.9726 27.7905 19.4514 27.99 20.01 27.99Z" fill="#963821"/>
</g>
<defs>
<clipPath id="clip0_244_1110">
<rect width="40" height="40" fill="white"/>
</clipPath>
</defs>
</svg>
