<svg width="40" height="40" viewBox="0 0 40 40" fill="none" xmlns="http://www.w3.org/2000/svg">
<path d="M12.2539 11.1172C14.1986 13.671 16.1454 16.2206 18.0964 18.7681C20.0682 21.3447 22.0399 23.9193 24.0116 26.4938C24.5352 27.1795 25.0609 27.8652 25.5845 28.551C25.9335 28.551 26.2826 28.551 26.6316 28.551C26.962 28.551 27.2944 28.551 27.6248 28.551C26.2244 26.6995 24.8261 24.846 23.4257 22.9946C20.4318 19.0361 17.4378 15.0777 14.4438 11.1172C13.7145 11.1172 12.9853 11.1172 12.256 11.1172H12.2539Z" fill="#963821"/>
<path d="M31.7822 0.00403105H8.22096C3.68325 0.00403105 0.00155828 3.68403 0.00155828 8.22221V19.7048C-0.000519427 19.8939 -0.000519427 20.0809 0.00155828 20.27V31.7879C0.00155828 36.324 3.68118 40.004 8.21889 40.004H31.7801C36.3178 40.004 39.9974 36.324 39.9974 31.7879V20.2929C39.9995 20.0955 39.9995 19.896 39.9974 19.6986V8.22014C39.9974 3.68195 36.3178 0.00195312 31.7801 0.00195312L31.7822 0.00403105ZM24.5684 30.7656C22.6361 28.2284 20.6955 25.6975 18.757 23.1666C16.7209 25.4877 14.6826 27.8066 12.6589 30.1401C12.4803 30.3458 12.2995 30.5536 12.1208 30.7594C10.8908 30.776 9.65874 30.7594 8.42874 30.7677C11.2835 27.4721 14.1715 24.2014 17.0346 20.9121C14.0074 16.9557 10.9843 12.9994 7.95502 9.04299C10.4836 9.03884 13.0828 9.04715 15.6114 9.03884C15.763 9.23624 15.9147 9.43364 16.0643 9.63104C17.6662 11.7381 19.1996 13.8596 20.8056 15.9729C22.8252 13.6622 24.8489 11.3516 26.8725 9.04507C28.1005 9.03884 29.3263 9.04299 30.5542 9.04507C29.773 9.93858 28.9897 10.8321 28.2064 11.7256C26.3032 13.897 24.4021 16.0705 22.5094 18.2503C25.6695 22.4186 28.9025 26.5869 32.046 30.7677C29.5756 30.7677 27.0367 30.7677 24.5663 30.7677L24.5684 30.7656Z" fill="#963821"/>
</svg>
