<svg width="25" height="25" viewBox="0 0 25 25" fill="none" xmlns="http://www.w3.org/2000/svg">
<g clip-path="url(#clip0_209_2766)">
<path fill-rule="evenodd" clip-rule="evenodd" d="M10.6391 5.402C12.6493 5.36354 14.8721 5.40504 16.8944 5.49513C17.9633 5.5427 19.7296 5.55586 20.675 5.96377C21.1315 6.16114 21.5677 6.5731 21.7863 6.96685C22.6204 8.46185 22.5435 12.8679 22.4058 14.6412C22.3552 15.2961 22.2064 16.8104 21.9797 17.4156C21.7013 18.1576 21.1416 18.6718 20.3075 18.9238C19.1628 19.269 15.613 19.3267 14.3832 19.3439C11.7718 19.3803 8.67852 19.359 6.08733 19.1435C5.47597 19.0928 4.83019 19.0078 4.30689 18.7922C3.8342 18.5979 3.40706 18.195 3.18944 17.7952C2.71877 16.9308 2.6054 15.3083 2.54569 14.1928C2.44852 12.379 2.48495 9.97405 2.79266 8.16325C2.94752 7.25228 3.23498 6.60043 3.96578 6.15608C4.18846 6.02045 4.43443 5.91316 4.7148 5.83927C5.91019 5.52347 9.37592 5.42832 10.6391 5.40403V5.402ZM3.56241e-05 4.45865V20.4967C3.56241e-05 20.8358 0.0698765 21.1901 0.139717 21.4715C0.176156 21.6193 0.218668 21.7589 0.269277 21.8915C0.370496 22.1618 0.474751 22.3997 0.626579 22.6497C1.06283 23.3693 1.57702 23.8886 2.29972 24.3238C2.91311 24.6933 3.76436 24.9554 4.46682 24.9554H20.5333C21.0667 24.9554 21.6568 24.8006 22.1355 24.6082C22.4058 24.4999 22.8097 24.2763 23.0354 24.1092C23.6042 23.6882 23.998 23.2722 24.3674 22.6598C24.7369 22.0474 25 21.2002 25 20.4957V4.45865C25 4.02948 24.8755 3.44747 24.7308 3.06385C24.7075 3.00211 24.6771 2.92012 24.6529 2.85939C24.6225 2.78449 24.5952 2.73995 24.5648 2.66505C24.5405 2.60432 24.5132 2.54865 24.4767 2.48691C24.2925 2.1792 24.167 1.93628 23.9129 1.65287L23.505 1.22876C23.4473 1.17106 23.4139 1.14778 23.3552 1.09515C23.0465 0.820848 22.841 0.725702 22.5212 0.53035L22.1487 0.352205C21.6699 0.156853 21.0677 0.000976562 20.5343 0.000976562H4.46682C4.03562 0.000976562 3.4526 0.126488 3.06899 0.269206C3.00724 0.292486 2.92526 0.322852 2.86351 0.347144L2.30883 0.625496C2.05275 0.78036 1.71367 1.0081 1.50313 1.21965L1.09421 1.64376C1.00109 1.74801 0.929223 1.85024 0.846224 1.96158C0.53447 2.38164 0.265229 2.97681 0.138705 3.48492C0.0688643 3.76631 -0.000976562 4.12159 -0.000976562 4.45966L3.56241e-05 4.45865Z" fill="white"/>
<path fill-rule="evenodd" clip-rule="evenodd" d="M13.1756 13.867C13.3679 13.7536 15.6676 12.4661 15.7618 12.373C15.6788 12.3052 13.2424 10.9276 13.1746 10.8891C12.7343 10.6422 12.3062 10.3972 11.8699 10.1452L10.8952 9.58848C10.797 9.5318 10.6664 9.44677 10.5581 9.40527L10.5642 12.9095C10.5662 13.621 10.549 14.7091 10.5703 15.3529L13.1766 13.867H13.1756Z" fill="white"/>
</g>
<defs>
<clipPath id="clip0_209_2766">
<rect width="25" height="24.9555" fill="white"/>
</clipPath>
</defs>
</svg>
